# xmcd
#
# Track frame offsets: 
#        180
#        13143
#        26095
#        39685
#        55342
#        68703
#        83823
#        98078
#        109072
#        121514
#        136223
#        148424
#        162142
#        176046
#        187967
#        203830
#        217152
#
# Disc length: 3084 seconds
#
# Revision: 0
# Processed by: cddbd v1.5.2PL0 Copyright (c) Steve Scherf et al.
# Submitted via: ExactAudioCopy v1.0b4
#
DISCID=f30c0a11
DTITLE=Various Artist - Amerikanischer Traum CD2
DYEAR=2006
DGENRE=
TTITLE0=Bully Buhlan - Lili Boogie (Original Mix)
TTITLE1=Richard Tauber - Indian Summer (Original Mix)
TTITLE2=Friedel Hensch, Die Cyprys - Mucki-Boogie (Original Mix)
TTITLE3=Bruce Low - Banjo-Benny (Original Mix)
TTITLE4=Bibi Johns - I Wish I Was a Puppet On a String (Original Mix)
TTITLE5=Marlène Dietrich - Lili Marleen (English Version)
TTITLE6=Richard Tauber - Dearly Beloved (Original Mix)
TTITLE7=Bibi Johns - Little Rock (Original Mix)
TTITLE8=Kilima Hawaiians - Lagerfeuer (Original Mix)
TTITLE9=Peter Alexander - Was versteht denn ein Cowboy von der Liebe (
TTITLE9=Original Mix)
TTITLE10=Bibi Jonesr - Puppy Love (Original Mix)
TTITLE11=Orchester Thommy Voss - In The Mood (Original Mix)
TTITLE12=Bibi Johns - Someone to Kiss Your Tears Away (Original Mix)
TTITLE13=Kiel-Holtenauer Lotsenchor Knurrhahn - Roll the Cotton Down (
TTITLE13=Original Mix)
TTITLE14=Anneliese Rothenberger - Summertime (Original Mix)
TTITLE15=Cornelia Froboess - Der kleine Cowboy Conny (Original Mix)
TTITLE16=Bully Buhlan, Rita Paul - Mackie Bookie (Original Mix)
EXTD=
EXTT0=
EXTT1=
EXTT2=
EXTT3=
EXTT4=
EXTT5=
EXTT6=
EXTT7=
EXTT8=
EXTT9=
EXTT10=
EXTT11=
EXTT12=
EXTT13=
EXTT14=
EXTT15=
EXTT16=
PLAYORDER=
